<svg xmlns="http://www.w3.org/2000/svg" fill="none" viewBox="0 0 77 33" height="33" width="77">
<path fill="#300266" d="M22.8353 24.7148C21.5307 26.4798 19.8425 28.3215 17.617 29.7028C15.4684 31.0841 13.0127 32.1584 10.0966 32.1584C7.4108 32.1584 5.18538 30.7772 3.95756 29.6261C2.11583 27.8611 1.11823 25.3287 0.811275 22.9498C-0.0328497 15.5829 4.49473 5.91384 11.4779 1.61648C13.0895 0.618879 14.8544 0.158447 16.5427 0.158447C19.9192 0.158447 22.4516 2.53734 22.7585 5.45341C23.0655 8.06252 22.0679 10.2879 19.1518 11.746C17.6938 12.5134 16.9264 12.4366 16.6962 12.1297C16.5427 11.8995 16.6194 11.5158 16.9264 11.2855C19.6122 9.06013 19.689 7.2184 19.382 4.60929C19.1518 2.92104 18.0775 1.8467 16.8496 1.8467C11.5547 1.8467 3.88082 13.7412 4.95516 22.3359C5.33885 25.7124 7.4108 29.6261 11.7082 29.6261C13.0895 29.6261 14.6242 29.2424 15.9288 28.5517C18.9216 27.017 20.2261 25.9426 21.9911 23.487C22.2213 23.18 22.4516 22.7963 22.6818 22.4894C22.8353 22.1824 23.1422 22.1057 23.3724 22.1057C23.6026 22.1057 23.9096 22.3359 23.9096 22.7196C23.9096 22.9498 23.8329 23.4102 23.5259 23.7939C23.3724 23.9474 23.0655 24.4078 22.8353 24.7148Z"></path>
<path fill="#300266" d="M30.8923 29.0888C29.5877 29.0888 28.8203 28.3982 28.5134 27.3239C27.6693 28.4749 26.4414 29.0888 25.2136 29.0888C23.1417 29.0888 21.2232 27.3239 20.9163 25.0217C20.4558 20.9546 23.9091 15.7363 29.1273 15.7363C31.3527 15.7363 33.1944 16.6572 33.4247 18.4222C33.7316 20.6476 31.8131 21.108 31.1225 21.108C30.5086 21.108 29.511 20.9546 29.4342 20.3406C29.3575 19.7267 30.7388 20.1104 30.5853 18.6524C30.5086 17.7315 29.5877 17.4246 28.6669 17.4246C25.4438 17.4246 23.6788 21.8754 24.0625 24.638C24.216 25.8658 24.8299 27.0936 25.981 27.0936C26.9019 27.0936 28.2832 25.7891 28.7436 23.7939C29.0506 22.4893 30.3551 21.5685 31.276 21.5685C31.7364 21.5685 32.1201 21.7987 32.1968 22.2591C32.1968 22.4126 32.1968 22.6428 32.1201 22.9498C32.0434 23.5637 31.5829 25.4054 31.5829 25.8658C31.5829 26.2495 31.8131 26.71 32.427 26.71C33.1177 26.71 36.264 24.8682 38.029 22.4126C38.1824 22.1824 38.4894 22.0289 38.7196 22.0289C38.9498 22.0289 39.2568 22.1824 39.2568 22.4893C39.3335 22.7963 39.18 23.18 38.7964 23.7171C36.8011 26.6332 32.427 29.0888 30.8923 29.0888Z"></path>
<path fill="#300266" d="M74.8641 27.5539C75.0176 28.8585 75.6315 29.7026 76.1687 30.163C76.3989 30.3165 76.4757 30.5467 76.4757 30.7002C76.5524 31.0839 76.2454 31.3908 75.785 31.3908C75.6315 31.3908 75.4781 31.3908 75.3246 31.3141C73.0224 30.3932 72.1016 28.8585 71.7946 27.4004C70.9505 28.4748 69.7227 29.1654 68.5716 29.1654C66.4996 29.1654 64.5812 27.4004 64.2742 25.0983C63.8138 21.1079 67.4205 15.8896 72.562 15.8896C74.7107 15.8896 76.6291 16.7338 76.8593 18.4988C77.1663 20.7242 75.1711 21.1846 74.5572 21.1846C73.8665 21.1846 72.8689 21.0311 72.7922 20.4172C72.7155 19.8801 74.1735 20.187 74.02 18.8057C73.9433 17.8849 72.9457 17.5779 72.1016 17.5779C69.1088 17.5779 67.1135 21.4916 67.4972 24.7146C67.6507 26.0191 68.2646 27.247 69.4157 27.247C70.3366 27.247 71.7179 25.9424 72.255 23.9472C72.562 22.6426 73.8665 21.7218 74.7874 21.7218C75.2478 21.7218 75.6315 21.952 75.7083 22.4892C75.7083 22.7194 75.6315 23.3333 75.1711 25.4052C74.7874 26.1726 74.7874 26.94 74.8641 27.5539Z"></path>
<path fill="#300266" d="M47.2392 26.7868C47.9298 26.7868 50.232 25.9427 52.0737 23.4103C52.3039 23.1801 52.5341 23.0266 52.7643 23.0266C53.0713 23.0266 53.3015 23.1801 53.3783 23.487C53.3783 23.7172 53.2248 24.1777 52.8411 24.7148C50.7691 27.6309 47.2392 29.0889 45.7044 29.0889C44.0929 29.0889 43.2488 28.0913 43.0953 26.6333C43.0185 26.1729 43.0185 25.559 43.172 24.9451C43.7092 21.6453 44.937 19.6501 44.8603 19.0362C44.8603 18.8827 44.7068 18.806 44.6301 18.806C43.6325 18.806 40.0257 22.4894 39.4886 24.9451L39.0281 26.8635C38.7212 28.2448 37.4166 29.0889 36.4958 29.0889C36.0353 29.0889 35.7284 28.8587 35.6516 28.3983C35.6516 28.2448 35.6516 28.0146 35.7284 27.7076C35.7284 27.7076 37.4934 18.6525 37.5701 18.1921C37.8003 17.1177 38.184 16.0434 40.3327 16.0434C40.7931 16.0434 41.1001 16.2736 41.1768 16.8108C41.1768 16.9642 41.1768 17.1944 41.1001 17.5014L40.4862 20.264C42.4046 17.7316 45.3207 15.8899 47.1624 15.8899C47.9298 15.8899 48.467 16.2736 48.6205 17.1177C48.6972 17.5781 48.5437 18.3455 48.2368 19.1897C47.6229 20.9546 46.9322 23.487 46.395 25.7124C46.2416 26.0194 46.395 26.7868 47.2392 26.7868Z"></path>
<path fill="#300266" d="M59.3623 16.1968C59.3623 17.4246 59.9762 18.7292 60.7436 19.5733C61.0505 18.7292 61.204 17.8851 61.204 17.0409C61.204 15.4294 60.5901 14.7388 60.1297 14.7388C59.5925 14.7388 59.3623 15.5062 59.3623 16.1968ZM62.1249 22.7963C61.8947 22.7963 61.6645 22.7963 61.3575 22.7196C59.3623 25.6357 57.2904 27.6309 55.6788 28.475C54.9882 28.8587 54.3743 29.0122 53.9139 29.0122C53.5302 29.0122 53.1465 28.9354 52.993 28.6285C52.3023 27.4007 51.9954 25.0218 51.9954 22.4894C51.9954 20.6477 52.1489 19.1129 52.4558 18.0385C52.8395 16.8875 54.2976 15.8131 55.2184 15.8131C55.6788 15.8131 56.0625 16.0433 56.0625 16.5805C56.0625 16.734 55.9858 16.9642 55.9091 17.1944C55.2184 19.1129 54.9115 20.9546 54.9115 22.7963C54.9115 23.7939 55.1417 25.4822 55.3719 26.3263C55.4486 26.4798 55.4486 26.71 55.6021 26.71C55.9091 26.71 57.981 24.6381 59.5158 22.1824C58.2112 21.3383 57.4438 19.8035 57.4438 17.8851C57.4438 14.662 59.3623 13.0505 61.204 13.0505C62.6621 13.0505 63.9666 14.1249 63.9666 16.2736C63.9666 17.5781 63.4294 19.1129 62.6621 20.5709C62.6621 20.5709 62.969 20.6477 63.1225 20.6477C64.2736 20.6477 65.1944 20.1105 65.6549 19.5733C66.0386 19.1896 66.3455 18.8827 66.6525 18.8827C66.8827 18.8827 66.9594 19.0361 66.9594 19.2664C66.9594 19.4198 66.8827 19.6501 66.8059 19.8803C65.7316 21.6453 63.7364 22.7963 62.1249 22.7963Z"></path>
</svg>
