<svg xmlns="http://www.w3.org/2000/svg" fill="none" viewBox="0 0 92 50" height="50" width="92">
<g clip-path="url(#clip0_18624_2346)">
<path fill="#0D405F" d="M41.6878 33.6076C42.0042 33.4177 42.384 33.3333 42.7637 33.3333C43.0591 33.3333 43.3544 33.3966 43.6076 33.5232C43.8818 33.6498 44.1139 33.8396 44.3038 34.0506L45 33.3544C44.7257 33.0169 44.3882 32.7637 44.0084 32.5949C43.5443 32.405 43.0591 32.3207 42.5527 32.3418C42.0464 32.3629 41.5612 32.5105 41.1392 32.7426C40.6751 33.0169 40.2953 33.3966 40.0211 33.8818C39.7468 34.3882 39.6202 34.9367 39.6202 35.5063C39.6202 36.0759 39.7468 36.6245 40.0211 37.1308C40.2743 37.5949 40.654 37.9958 41.1181 38.27C41.6034 38.5443 42.1519 38.692 42.7004 38.6709C43.1434 38.6709 43.5865 38.5865 44.0084 38.4177C44.3882 38.2489 44.7468 37.9747 45 37.6582L44.3038 36.962C44.1139 37.1941 43.8818 37.3839 43.6076 37.5105C43.3333 37.6371 43.038 37.7004 42.7426 37.7004C42.3629 37.7004 42.0042 37.616 41.6667 37.4261C41.3502 37.2363 41.097 36.9831 40.9283 36.6666C40.7595 36.3291 40.654 35.9283 40.654 35.5485C40.654 35.1688 40.7384 34.789 40.9283 34.4304C41.1181 34.0717 41.3713 33.7975 41.6878 33.6076ZM40.6118 26.4768H43.5654V29.1139H44.6202V22.9536H43.5654V25.4852H40.6118V22.9536H39.5569V29.1139H40.6118V26.4768ZM45.9283 29.1139H46.9831V22.9536H45.9283V29.1139ZM51.4979 23.2278C51.097 23.038 50.654 22.9536 50.211 22.9747H48.3122V29.1139H49.3671V27.3418H50.211C50.654 27.3418 51.097 27.2574 51.4979 27.0886C51.8565 26.9198 52.1519 26.6667 52.3418 26.3291C52.5316 25.9704 52.6371 25.5696 52.6371 25.1688C52.6371 24.7679 52.5316 24.3671 52.3418 24.0084C52.1519 23.6498 51.8565 23.3966 51.4979 23.2278ZM51.2025 26.0548C50.9705 26.2658 50.6118 26.3713 50.1477 26.3713H49.3671V23.924H50.1477C50.6118 23.924 50.9705 24.0295 51.2025 24.2405C51.4346 24.4515 51.5612 24.7468 51.5612 25.1477C51.5612 25.5485 51.4557 25.8439 51.2025 26.0548ZM61.8776 22.9747L59.0295 29.1139H60.2321L60.865 27.7004H64.0295L64.6624 29.1139H65.8861L63.038 22.9536H61.8776V22.9747ZM61.2658 26.7932L62.4472 24.1139L63.6287 26.7932H61.2658ZM50.5485 32.7426C50.0633 32.4683 49.5148 32.3418 48.9451 32.3418C48.3755 32.3418 47.8481 32.4894 47.3418 32.7426C46.8776 33.0169 46.4768 33.3966 46.2236 33.8818C45.9494 34.3882 45.8228 34.9367 45.8228 35.5063C45.8228 36.0759 45.9705 36.6245 46.2236 37.1308C46.4768 37.5949 46.8776 37.9958 47.3418 38.27C47.827 38.5443 48.3755 38.6709 48.9451 38.6709C49.5148 38.6709 50.0422 38.5232 50.5485 38.27C51.0126 37.9958 51.3924 37.616 51.6667 37.1308C51.9409 36.6245 52.0675 36.0759 52.0675 35.5063C52.0675 34.9367 51.9198 34.3882 51.6667 33.8818C51.3924 33.3966 51.0126 33.0169 50.5485 32.7426ZM50.7173 36.6034C50.5485 36.9198 50.2953 37.1941 50 37.384C49.6835 37.5738 49.3249 37.6582 48.9662 37.6582C48.6076 37.6582 48.2489 37.5527 47.9325 37.384C47.616 37.1941 47.3629 36.9409 47.2152 36.6034C47.0464 36.2658 46.9409 35.8861 46.9409 35.4852C46.9409 35.0844 47.0253 34.7257 47.2152 34.3671C47.384 34.0506 47.6371 33.7764 47.9325 33.5865C48.2489 33.3966 48.6076 33.3122 48.9662 33.3122C49.3249 33.3122 49.6835 33.4177 50 33.5865C50.3164 33.7764 50.5696 34.0295 50.7173 34.3671C50.8861 34.7046 50.9916 35.0844 50.9916 35.4852C50.9916 35.8861 50.8861 36.2658 50.7173 36.6034ZM86.5823 32.4261V33.3966H88.5021V38.5865H89.578V33.3966H91.4979V32.4261H86.5823ZM84.8734 36.5823L81.6878 32.4261H80.8017V38.5865H81.8776V34.4304L85.0633 38.5865H85.9494V32.4261H84.8734V36.5823ZM58.2489 32.4261L56.4557 35.6962L54.6202 32.4261H53.2911V38.5865H54.4304V34.3249L56.4346 37.8692L58.481 34.2616V38.5654H59.6202V32.405H58.2489V32.4261ZM64.0717 32.6793C63.6709 32.4894 63.2067 32.4051 62.7637 32.4261H60.8439V38.5865H61.9198V36.8143H62.7637C63.2067 36.8143 63.6709 36.7299 64.0717 36.5612C64.4304 36.3924 64.7257 36.1392 64.9367 35.8017C65.1266 35.443 65.2321 35.0422 65.2321 34.6413C65.2321 34.2405 65.1266 33.8396 64.9367 33.481C64.7257 33.1223 64.4304 32.8481 64.0717 32.6793ZM63.7764 35.5274C63.5443 35.7384 63.1856 35.8439 62.7004 35.8439H61.8987V33.3966H62.7004C63.1645 33.3966 63.5232 33.5021 63.7764 33.7131C64.0084 33.924 64.135 34.2194 64.135 34.6202C64.1561 35 64.0295 35.3164 63.7764 35.5274ZM57.0042 27.7004L57.6371 29.1139H58.8607L56.0126 22.9536H54.8523L52.0253 29.1139H53.2278L53.8607 27.7004H57.0042ZM55.443 24.1139L56.6245 26.7932H54.2616L55.443 24.1139ZM67.2996 32.4261H66.2236V38.5865H70.3164V37.616H67.2996V32.4261ZM71.2025 38.5654H72.2785V32.405H71.2025V38.5654ZM27.9536 45.5063C27.9747 46.9831 27.9958 48.0591 28.0169 48.5865C28.038 48.6498 28.038 48.7342 28.0169 48.7975C28.0169 48.8818 28.0169 48.9451 28.0169 48.9451C28.0169 49.2405 28.0591 49.5359 28.1434 49.8101C28.2278 49.5359 28.27 49.2405 28.27 48.9451C28.27 48.8396 28.3122 47.2996 28.3755 44.8312C28.3544 44.8523 28.3333 44.8734 28.3333 44.8945C28.1856 45.0844 28.0591 45.2953 27.9536 45.5063ZM23.5654 14.7046C23.9029 14.346 24.2194 13.924 24.4515 13.481C24.2827 13.8607 23.6287 15.2953 24.2616 15.4219C24.9578 15.5485 25.7384 15.3375 27.1519 13.5443C27.1097 11.2447 27.0675 9.24049 27.0464 7.7215H26.2869C26.2447 7.7215 26.2236 7.7215 26.1814 7.7215C25.7595 7.7215 25.0633 7.67931 24.5991 6.98311C24.0928 6.22361 24.0717 5.44302 24.0506 4.8734C24.0295 4.05062 23.8186 2.55272 22.7848 1.70884C22.0675 1.13922 20.1266 0.696184 18.3333 1.41348C17.7426 1.64555 16.5612 2.25737 15.4008 2.82699C14.346 3.35441 12.9958 4.00842 12.5738 4.00842C13.27 3.69196 14.1983 3.22783 15.211 2.65821C16.3713 2.0253 17.5949 1.35019 18.2067 1.09703C19.4304 0.611795 21.7721 0.464117 22.9747 1.43458C24.1139 2.36285 24.346 3.96623 24.3671 4.8312C24.3882 5.40082 24.4093 6.09703 24.8523 6.79323C25.2532 7.38395 25.8861 7.38395 26.2658 7.38395H26.3502H27.0253C27.0253 7.19407 27.0253 7.0253 27.0253 6.83542C26.3502 6.87762 25.3797 6.91981 24.9578 6.01264C24.4515 4.91559 25 2.10969 23.3122 0.928252C21.6245 -0.253183 18.924 0.0421764 16.519 1.43458C14.135 2.80589 10.9705 4.59914 7.0675 6.16032C3.16454 7.7215 0.738384 8.35441 0.274249 8.4177C-0.168789 8.50209 0.632898 8.79745 2.29957 8.83964C3.96623 8.88184 5.35864 8.75526 5.35864 8.75526L17.5949 3.18564C17.5949 3.18564 7.0464 8.4388 6.16032 9.00842C5.27425 9.57804 4.55695 9.76792 4.62024 10.2953C4.68353 10.8228 5.35864 10.7595 7.21518 10.7173C9.07172 10.6751 9.47256 10.5063 10.1055 10.3164C10.7384 10.1266 17.5949 6.96201 17.5949 6.96201C17.5949 6.96201 10.2532 10.6118 9.1983 11.4557C8.14345 12.2996 9.28269 12.5738 9.99998 12.5949C10.7384 12.616 12.7004 12.5105 13.7975 11.962C14.8945 11.4135 18.3122 9.21939 18.3122 9.21939C18.3122 9.21939 14.9367 11.6456 14.2827 12.1941C13.7553 12.6371 13.481 13.0169 13.6076 13.481C13.7975 14.0717 14.8101 14.0084 16.1603 13.5232C16.1603 13.5232 17.5527 13.038 18.0802 12.5738C18.6076 12.0886 20.0844 10.7806 20.0844 10.7806C20.0844 10.7806 18.3333 12.5949 17.8903 13.3755C17.4683 14.1561 17.384 14.346 17.5949 14.789C17.8903 15.4219 20.1266 14.7679 20.7595 14.0928C21.2236 13.5654 21.6667 13.0169 22.0675 12.4261C22.0675 12.4261 21.3924 13.5232 21.2447 14.1561C21.097 14.789 20.9283 15.2953 21.5401 15.3586C22.2152 15.4641 22.8481 15.4852 23.5654 14.7046ZM27.7426 29.0717C27.8059 29.0295 27.8692 28.9873 27.9325 28.9451C28.0591 28.8607 28.1645 28.7975 28.2489 28.7131C28.4177 28.6076 28.5865 28.481 28.7553 28.3755C28.7764 27.173 28.8186 25.9494 28.8396 24.7468C28.5021 24.5991 28.1434 24.4515 27.7637 24.3038C27.7426 24.3038 27.7215 24.2827 27.7004 24.2827C27.6582 24.2616 27.6371 24.2616 27.5949 24.2405C27.3418 24.1561 27.1097 24.0506 26.8354 23.9662C26.519 23.8396 26.2025 23.7342 25.8861 23.6076C23.7764 24.7257 23.3544 25.2531 23.3544 26.2869C23.3544 27.7426 24.5991 28.3966 26.751 29.7679C27.0886 29.5148 27.4261 29.2827 27.7426 29.0717ZM25.1477 26.4768C25.1477 26.4768 25 25.5485 27.384 24.4726C27.4472 24.4515 27.5105 24.4093 27.5738 24.3882C27.5949 25.8439 27.616 27.2996 27.6582 28.7553C26.4768 27.9536 25.1477 27.1941 25.1477 26.4768ZM28.7553 44.3882C28.6498 44.5148 28.5443 44.6413 28.4388 44.7468C29.0506 45.5696 29.0084 46.3713 28.6709 47.4051C28.9873 47.0464 29.6202 46.1392 29.0928 44.9578C28.9873 44.7679 28.8818 44.578 28.7553 44.3882ZM27.7848 35.7384C28.0169 35.9704 28.2911 36.2447 28.5654 36.519C28.7342 36.6877 28.9029 36.8565 29.0928 37.0464C29.1139 37.0675 29.1561 37.0886 29.1983 37.1308C30.6329 35.8861 31.9409 34.7046 31.9409 33.2278C31.9409 32.0675 30.8228 31.0126 29.7046 30.1688C29.5991 30.2321 29.4937 30.2953 29.3882 30.3797C29.135 30.5485 28.9029 30.6962 28.692 30.8439C28.692 30.8439 28.6709 30.8439 28.6709 30.865C28.6287 30.9072 28.5654 30.9283 28.5232 30.9704C28.2278 31.1814 27.9536 31.3713 27.7004 31.5612C27.7426 32.9747 27.7637 34.3882 27.7848 35.7384ZM28.692 31.0759C30.0844 32.0886 30.6329 32.7426 30.6329 33.4599C30.6329 34.1983 29.8523 35.0633 28.5865 36.3291C28.6076 34.6413 28.6498 32.8903 28.692 31.0759ZM36.3924 10.8017C36.3924 10.8017 37.8692 12.1097 38.3966 12.5949C38.924 13.0802 40.3164 13.5443 40.3164 13.5443C41.6667 14.0295 42.6793 14.0928 42.8692 13.5021C43.0169 13.038 42.7215 12.6371 42.1941 12.2152C41.5401 11.6666 38.1645 9.24049 38.1645 9.24049C38.1645 9.24049 41.5823 11.4346 42.6793 11.9831C43.7764 12.5316 45.7384 12.6371 46.4768 12.616C47.2152 12.5949 48.3333 12.3207 47.2785 11.4768C46.2236 10.6329 38.8818 6.98311 38.8818 6.98311C38.8818 6.98311 45.7173 10.1688 46.3713 10.3375C47.0042 10.5274 47.4051 10.6751 49.2616 10.7384C51.1181 10.7806 51.7721 10.8439 51.8565 10.3164C51.9409 9.81011 51.2025 9.62024 50.3164 9.02952C49.4304 8.4599 38.8818 3.20673 38.8818 3.20673L51.1181 8.77635C51.1181 8.77635 52.5105 8.90294 54.1772 8.86074C55.8439 8.81855 56.6456 8.52319 56.2025 8.4388C55.7595 8.35441 53.3122 7.7426 49.4093 6.18142C45.5063 4.62024 42.3418 2.84808 39.9578 1.45568C37.5738 0.0843702 34.8523 -0.232086 33.1645 0.949349C31.4768 2.13078 32.0253 4.91559 31.519 6.03374C31.097 6.94091 30.1266 6.89872 29.4515 6.85652C29.4515 7.0253 29.4515 7.21517 29.4304 7.40505H30.1266H30.211C30.5907 7.40505 31.2236 7.40505 31.6245 6.81433C32.0675 6.13922 32.0886 5.42192 32.1097 4.8523C32.1308 3.98732 32.3629 2.38395 33.5021 1.45568C34.7046 0.485214 37.0464 0.632894 38.27 1.11813C38.8818 1.35019 40.1055 2.0253 41.2658 2.67931C42.2785 3.24893 43.2067 3.71306 43.9029 4.02952C43.4599 4.02952 42.1308 3.37551 41.0759 2.84808C39.9367 2.25737 38.7553 1.66665 38.1434 1.43458C36.3502 0.717282 34.4093 1.16032 33.692 1.72994C32.6371 2.57382 32.4472 4.07171 32.4261 4.8945C32.4051 5.46412 32.384 6.2658 31.8776 7.0042C31.4346 7.7004 30.7384 7.7426 30.2953 7.7426C30.2532 7.7426 30.2321 7.7426 30.1899 7.7426H29.4304C29.3882 9.26158 29.346 11.2447 29.3038 13.5021C30.7384 15.3375 31.5612 15.5696 32.2363 15.4219C32.8692 15.2953 32.2363 13.8607 32.0464 13.481C32.2996 13.924 32.5949 14.3249 32.9325 14.7046C33.6287 15.4852 34.2827 15.4641 34.9156 15.3797C35.5485 15.2953 35.3586 14.8101 35.211 14.1772C35.0633 13.5443 34.3882 12.4472 34.3882 12.4472C34.789 13.0169 35.2321 13.5865 35.6962 14.1139C36.3291 14.789 38.5654 15.4641 38.8607 14.8101C39.0506 14.3882 38.9873 14.1772 38.5654 13.3966C38.1645 12.616 36.3924 10.8017 36.3924 10.8017ZM28.27 4.34597C28.6076 4.34597 28.9451 4.24049 29.2194 4.05061C29.4937 3.86074 29.7257 3.58648 29.8523 3.29112C29.9789 2.97466 30.0211 2.63711 29.9578 2.29956C29.8945 1.96201 29.7257 1.66665 29.4937 1.41348C29.2616 1.18142 28.9451 1.01264 28.6076 0.949349C28.27 0.886058 27.9325 0.907155 27.616 1.05483C27.2996 1.18142 27.0253 1.41348 26.8565 1.68775C26.6667 1.96201 26.5612 2.29956 26.5612 2.63711C26.5612 2.86918 26.6034 3.08015 26.6877 3.29112C26.7721 3.50209 26.8987 3.69196 27.0675 3.83964C27.2363 4.00842 27.405 4.135 27.616 4.21939C27.8059 4.30378 28.038 4.34597 28.27 4.34597ZM33.8818 17.173C33.8818 17.173 33.8397 15.9915 31.9198 15.865C29.9578 15.7384 29.8734 16.5823 29.9156 16.8987C30.0633 16.8987 30.1899 16.9409 30.1899 16.9831C30.1899 17.0253 30.0844 17.0675 29.9578 17.0675C30.0633 17.3839 30.3586 17.7637 31.2025 18.1856C31.8987 18.5232 32.2363 18.5021 32.6371 18.4388C32.6371 18.4388 33.1013 18.7131 33.1013 19.1561C33.1013 19.578 32.3629 20.4008 28.9029 22.1308C29.1139 12.8059 29.3038 4.62023 29.3038 4.62023H29.5148C29.5991 4.62023 29.6835 4.57804 29.7468 4.51475C29.8101 4.45146 29.8523 4.36707 29.8523 4.28268V4.1772C29.8523 4.135 29.8523 4.09281 29.8312 4.05061C29.8101 4.00842 29.789 3.96623 29.7468 3.94513C29.5569 4.1561 29.346 4.32488 29.0928 4.45146C28.8396 4.57804 28.5654 4.62023 28.2911 4.62023C28.0169 4.62023 27.7426 4.55695 27.4894 4.45146C27.2363 4.34597 27.0042 4.1561 26.8354 3.94513C26.7932 3.98732 26.7721 4.00842 26.751 4.05061C26.7299 4.09281 26.7299 4.135 26.7299 4.1772V4.28268C26.7299 4.36707 26.7721 4.45146 26.8354 4.51475C26.8987 4.57804 26.9831 4.62023 27.0675 4.62023H27.2785C27.2785 4.62023 27.4261 12.5738 27.5738 21.7299C27.8692 21.8776 28.1645 22.0253 28.5021 22.1941C28.5443 22.2152 28.6076 22.2363 28.6498 22.2574C29.4304 22.6371 30.0844 22.9536 30.6329 23.2489C32.4894 22.5316 34.3038 21.7088 34.8523 20.5485C35.8228 18.3966 33.8818 17.173 33.8818 17.173ZM31.308 16.6877C31.097 16.6877 30.9283 16.5823 30.9283 16.4557C30.9283 16.3291 31.097 16.2236 31.308 16.2236C31.519 16.2236 31.6878 16.3291 31.6878 16.4557C31.6878 16.5823 31.519 16.6877 31.308 16.6877ZM27.9536 43.3966C28.1224 43.1856 28.27 42.9747 28.4388 42.7848C28.4599 41.5823 28.5021 40.232 28.5232 38.7764C28.3122 38.5654 28.0802 38.3544 27.827 38.1223C27.7426 38.0591 27.6793 37.9747 27.5949 37.9114C27.4894 37.8059 27.384 37.7215 27.2785 37.6371C26.6878 38.1856 25.5274 39.4093 25.5274 40.4641C25.5274 41.7088 26.7299 42.9747 27.6371 43.8818C27.7215 43.692 27.827 43.5443 27.9536 43.3966ZM27.827 38.3755C27.8692 40.1688 27.8903 41.8143 27.9114 43.2278C27.2152 42.2996 26.4768 41.3502 26.4768 40.6962C26.4768 40.0844 26.8354 39.3882 27.827 38.3755ZM28.3122 22.4683C24.1983 20.4852 23.3544 19.578 23.3544 19.135C23.3544 18.692 23.8186 18.4177 23.8186 18.4177C24.2194 18.5021 24.5569 18.5021 25.2531 18.1645C26.097 17.7637 26.3924 17.3629 26.4979 17.0464C26.3713 17.0464 26.2658 17.0042 26.2658 16.962C26.2658 16.9198 26.3924 16.8776 26.5401 16.8776V16.8565C26.5612 16.5401 26.4557 15.7173 24.5148 15.8439C22.5949 15.9704 22.5527 17.1519 22.5527 17.1519C22.5527 17.1519 20.6118 18.3966 21.6245 20.5063C22.5105 22.3839 26.6667 23.3755 29.0717 24.4515C31.4557 25.5274 31.308 26.4557 31.308 26.4557C31.308 27.2574 29.7046 28.1012 28.4388 28.9873C27.173 29.8734 24.4937 31.4135 24.4937 33.2278C24.4937 34.8945 26.1603 36.1814 27.7848 37.616C29.4304 39.0506 29.9578 39.9156 29.9578 40.7173C29.9578 41.8143 28.1434 43.2911 27.2152 45.1266C26.2869 46.962 28.1224 49.8101 27.5527 48.3122C26.962 46.8143 27.2785 45.7595 28.038 44.7046C28.9662 43.4177 30.9494 42.1519 30.9494 40.443C30.9494 39.0084 28.8607 37.3207 28.8607 37.3207C27.0042 35.4641 25.8228 34.4093 25.8228 33.481C25.8228 32.5527 26.7088 31.7299 29.1983 30.1055C31.6667 28.5021 33.1224 27.8692 33.1224 26.308C33.1224 24.9367 32.4261 24.4515 28.3122 22.4683ZM25.1477 16.2447C25.3586 16.2447 25.5274 16.3502 25.5274 16.4768C25.5274 16.6034 25.3586 16.7088 25.1477 16.7088C24.9367 16.7088 24.7679 16.6034 24.7679 16.4768C24.7679 16.3502 24.9367 16.2447 25.1477 16.2447ZM75.9494 32.4261L73.1013 38.5865H74.3038L74.9367 37.173H78.1013L78.7342 38.5865H79.9578L77.1097 32.4261H75.9494ZM75.3375 36.2658L76.519 33.5865L77.7004 36.2658H75.3375Z"></path>
</g>
<defs>
<clipPath id="clip0_18624_2346">
<rect fill="white" height="50" width="91.5612"></rect>
</clipPath>
</defs>
</svg>
