<svg width="481" height="519" viewBox="0 0 481 519" fill="none" xmlns="http://www.w3.org/2000/svg" xmlns:xlink="http://www.w3.org/1999/xlink">
<mask id="mask0_17374_9733" style="mask-type:alpha" maskUnits="userSpaceOnUse" x="0" y="-46" width="759" height="683">
<path d="M142.232 81.9445C237.861 57.0933 340.487 33.8304 394.035 46.6297C415.301 51.7214 425.505 77.2265 413.405 96.005C329.154 226.894 148.373 269.356 89 292.665C202.688 293.646 322.743 256.79 430.02 295.608C684.171 387.492 294.569 634.882 203.908 517.213C151.353 449.013 520.276 254.267 669.859 189.29" fill="url(#paint0_linear_17374_9733)"/>
<path d="M142.232 81.9445C237.861 57.0933 340.487 33.8304 394.035 46.6297C415.301 51.7214 425.505 77.2265 413.405 96.005C329.154 226.894 148.373 269.356 89 292.665C202.688 293.646 322.743 256.79 430.02 295.608C684.171 387.492 294.569 634.882 203.908 517.213C151.353 449.013 520.276 254.267 669.859 189.29" fill="url(#pattern0_17374_9733)"/>
<path d="M142.232 81.9445C237.861 57.0933 340.487 33.8304 394.035 46.6297C415.301 51.7214 425.505 77.2265 413.405 96.005C329.154 226.894 148.373 269.356 89 292.665C202.688 293.646 322.743 256.79 430.02 295.608C684.171 387.492 294.569 634.882 203.908 517.213C151.353 449.013 520.276 254.267 669.859 189.29" stroke="#300266" stroke-width="177.141" stroke-linecap="round" stroke-linejoin="round"/>
</mask>
<g mask="url(#mask0_17374_9733)">
<rect x="-59" y="0.86145" width="785" height="524" fill="#000"/>
</g>
</svg>
