<svg height="23" width="133" viewBox="0 0 133 23" style="isolation:isolate" xmlns:xlink="http://www.w3.org/1999/xlink" xmlns="http://www.w3.org/2000/svg"><defs><clipPath id="_clipPath_VXMZnWuiSATIZ3VqNy4YxmY9vlutgErm"><rect height="23" width="133"></rect></clipPath></defs><g clip-path="url(#_clipPath_VXMZnWuiSATIZ3VqNy4YxmY9vlutgErm)"><g id="Group"><g id="Group"><path fill="rgb(0,86,63)" d="M 130.793 11.794 C 129.639 11.794 128.71 10.866 128.71 9.711 C 128.71 8.557 129.639 7.629 130.793 7.629 C 131.946 7.629 132.875 8.557 132.875 9.711 C 132.853 10.866 131.924 11.794 130.793 11.794 Z  M 130.793 7.854 C 129.773 7.854 128.959 8.715 128.959 9.71 C 128.959 10.729 129.796 11.567 130.793 11.567 C 131.788 11.567 132.626 10.708 132.626 9.71 C 132.626 8.715 131.788 7.854 130.793 7.854 Z  M 131.336 10.798 L 130.771 9.869 L 130.384 9.869 L 130.384 10.798 L 130.135 10.798 L 130.135 8.557 L 130.86 8.557 C 131.247 8.557 131.563 8.828 131.563 9.214 C 131.563 9.554 131.336 9.758 131.042 9.848 L 131.631 10.799 L 131.336 10.799 L 131.336 10.798 Z  M 130.838 8.807 L 130.384 8.807 L 130.384 9.621 L 130.838 9.621 C 131.109 9.621 131.315 9.462 131.315 9.213 C 131.314 8.988 131.108 8.807 130.838 8.807 Z"></path></g><path fill="rgb(0,86,63)" d="M 100.999 7.697 C 100.93 7.697 100.906 7.72 100.274 7.742 C 99.617 7.764 98.416 7.787 95.924 7.787 L 94.771 7.787 L 94.068 7.787 L 92.914 7.787 C 90.445 7.787 89.225 7.764 88.566 7.742 C 87.932 7.72 87.911 7.697 87.842 7.697 C 87.547 7.697 87.547 7.879 87.547 8.445 L 87.547 10.64 C 87.547 10.753 87.547 11.048 87.796 11.048 C 88.068 11.048 88.113 10.957 88.544 10.074 C 88.815 9.463 89.381 8.579 92.644 8.535 C 92.981 8.557 93.118 8.625 93.118 9.146 L 93.118 20.286 C 93.118 21.214 93.118 21.87 91.919 21.938 C 91.42 21.983 91.08 22.004 91.08 22.344 C 91.08 22.707 91.397 22.707 91.577 22.707 C 92.032 22.707 93.977 22.617 94.386 22.617 C 95.179 22.617 96.423 22.707 97.217 22.707 C 97.395 22.707 97.715 22.707 97.715 22.344 C 97.715 21.983 97.375 21.959 96.876 21.938 C 95.675 21.87 95.675 21.213 95.675 20.239 L 95.675 9.327 C 95.675 8.692 95.745 8.579 96.445 8.535 C 99.434 8.625 99.976 9.463 100.249 10.052 C 100.679 10.935 100.725 11.025 100.997 11.025 C 101.247 11.025 101.247 10.731 101.247 10.619 L 101.247 8.421 C 101.292 7.879 101.292 7.697 100.999 7.697 Z"></path><path fill="rgb(0,86,63)" d="M 75.12 18.904 C 74.894 18.904 74.849 18.994 74.418 19.832 C 73.355 21.869 71.883 21.869 70.819 21.869 C 68.802 21.869 68.304 21.598 68.304 19.898 L 68.304 15.777 C 68.304 15.054 68.485 15.054 69.64 15.054 C 71.609 15.054 72.266 15.075 72.786 16.933 C 72.899 17.386 73.057 17.499 73.238 17.499 C 73.535 17.499 73.535 17.159 73.535 17.024 C 73.535 16.84 73.464 16.004 73.464 15.821 C 73.464 15.303 73.625 12.835 73.625 12.495 C 73.625 12.224 73.513 12.155 73.354 12.155 C 73.24 12.155 73.103 12.2 72.991 12.518 C 72.56 13.786 72.335 14.307 69.686 14.307 C 68.305 14.307 68.305 14.125 68.305 13.354 L 68.305 9.892 C 68.305 8.692 68.394 8.533 69.594 8.533 C 72.99 8.533 73.579 9.44 73.852 10.073 C 74.282 10.956 74.327 11.046 74.598 11.046 C 74.847 11.046 74.847 10.752 74.847 10.638 L 74.847 8.444 C 74.847 7.901 74.847 7.696 74.552 7.696 C 74.484 7.696 74.462 7.719 73.828 7.741 C 73.172 7.763 71.949 7.786 69.481 7.786 L 68.326 7.786 C 66.289 7.786 65.269 7.763 64.725 7.741 C 64.205 7.719 64.182 7.696 64.136 7.696 C 63.978 7.696 63.661 7.696 63.661 8.036 C 63.661 8.398 64.001 8.421 64.522 8.444 C 65.721 8.512 65.721 9.168 65.721 10.143 L 65.721 20.264 C 65.721 21.237 65.721 21.893 64.522 21.961 C 64.022 22.006 63.661 22.029 63.661 22.369 C 63.661 22.73 63.978 22.73 64.159 22.73 C 64.318 22.73 64.522 22.709 64.907 22.685 C 65.292 22.661 65.88 22.638 66.877 22.638 L 67.171 22.638 C 67.307 22.638 68.441 22.661 69.797 22.685 C 71.178 22.706 72.853 22.73 74.075 22.73 C 74.779 22.73 75.004 22.459 75.026 22.005 C 75.095 21.122 75.367 19.583 75.367 19.267 C 75.393 19.107 75.324 18.904 75.12 18.904 Z"></path><path fill="rgb(0,86,63)" d="M 114.221 18.904 C 113.993 18.904 113.949 18.994 113.518 19.832 C 112.454 21.869 110.981 21.869 109.917 21.869 C 107.901 21.869 107.404 21.598 107.404 19.898 L 107.404 15.777 C 107.404 15.054 107.586 15.054 108.739 15.054 C 110.709 15.054 111.367 15.075 111.886 16.933 C 111.998 17.386 112.158 17.499 112.338 17.499 C 112.633 17.499 112.633 17.159 112.633 17.024 C 112.633 16.84 112.565 16.004 112.565 15.821 C 112.565 15.303 112.723 12.835 112.723 12.495 C 112.723 12.224 112.612 12.155 112.453 12.155 C 112.339 12.155 112.205 12.2 112.093 12.518 C 111.661 13.786 111.435 14.307 108.785 14.307 C 107.405 14.307 107.405 14.125 107.405 13.354 L 107.405 9.892 C 107.405 8.692 107.495 8.533 108.695 8.533 C 112.092 8.533 112.678 9.44 112.951 10.073 C 113.383 10.956 113.426 11.046 113.698 11.046 C 113.947 11.046 113.947 10.752 113.947 10.638 L 113.947 8.444 C 113.947 7.901 113.947 7.696 113.653 7.696 C 113.585 7.696 113.562 7.719 112.927 7.741 C 112.272 7.763 111.048 7.786 108.581 7.786 L 107.426 7.786 C 105.388 7.786 104.37 7.763 103.824 7.741 C 103.304 7.719 103.281 7.696 103.238 7.696 C 103.078 7.696 102.759 7.696 102.759 8.036 C 102.759 8.398 103.1 8.421 103.62 8.444 C 104.819 8.512 104.819 9.168 104.819 10.143 L 104.819 20.264 C 104.819 21.237 104.819 21.893 103.62 21.961 C 103.122 22.006 102.759 22.029 102.759 22.369 C 102.759 22.73 103.077 22.73 103.257 22.73 C 103.417 22.73 103.62 22.709 104.006 22.685 C 104.389 22.662 104.978 22.638 105.975 22.638 L 106.272 22.638 C 106.407 22.638 107.536 22.661 108.897 22.685 C 110.278 22.706 111.955 22.73 113.177 22.73 C 113.878 22.73 114.104 22.459 114.127 22.005 C 114.194 21.122 114.467 19.583 114.467 19.267 C 114.491 19.107 114.425 18.904 114.221 18.904 Z"></path><path fill="rgb(0,86,63)" d="M 82.659 13.469 C 80.712 12.656 79.286 12.043 79.286 10.322 C 79.286 9.372 80.057 7.991 81.958 8.013 C 83.995 8.035 84.426 9.372 84.721 10.322 C 84.969 11.07 85.061 11.228 85.31 11.228 C 85.649 11.228 85.649 11.024 85.649 10.503 C 85.649 8.352 85.649 8.127 85.353 7.968 C 85.015 7.786 83.567 7.402 82.163 7.402 C 79.061 7.402 77.34 9.349 77.34 11.612 C 77.34 14.194 79.263 15.168 81.256 16.028 C 83.021 16.842 84.676 17.77 84.676 19.673 C 84.676 21.644 82.75 22.321 81.733 22.321 C 79.99 22.321 78.315 20.85 77.861 18.721 C 77.817 18.494 77.77 18.246 77.567 18.246 C 77.271 18.246 77.251 18.586 77.251 18.674 C 77.228 19.559 77.341 20.6 77.388 20.916 C 77.454 21.525 77.545 22.025 77.818 22.207 C 78.246 22.523 79.47 22.998 81.371 22.998 C 84.632 22.998 86.625 20.736 86.625 18.019 C 86.599 15.258 84.04 14.059 82.659 13.469 Z"></path><path fill="rgb(0,86,63)" d="M 25.063 7.402 C 20.377 7.402 16.821 10.776 16.821 15.168 C 16.821 19.832 20.76 23 24.995 23 C 29.115 23 33.123 19.672 33.123 14.941 C 33.145 10.729 29.591 7.402 25.063 7.402 Z  M 25.198 22.344 C 21.983 22.344 19.674 18.61 19.674 14.67 C 19.674 11.205 21.825 8.082 24.791 8.082 C 28.594 8.082 30.292 12.158 30.292 15.055 C 30.292 18.563 28.526 22.344 25.198 22.344 Z"></path><path fill="rgb(0,86,63)" d="M 15.304 1.855 C 15.259 1.855 15.236 1.9 14.307 1.923 C 13.402 1.945 11.591 1.99 7.991 1.99 L 7.245 1.99 C 3.826 1.99 2.558 1.944 1.675 1.923 C 0.814 1.878 0.769 1.855 0.702 1.855 C 0.453 1.855 0 1.855 0 2.331 C 0 2.806 0.521 2.852 1.246 2.92 C 2.966 3.033 2.966 3.961 2.966 5.387 L 2.966 14.715 L 2.966 19.719 C 2.966 20.873 2.966 21.666 1.494 21.756 C 0.883 21.824 0.475 21.846 0.475 22.254 C 0.475 22.684 0.86 22.684 1.086 22.684 C 1.653 22.684 4.097 22.573 4.595 22.573 C 5.569 22.573 7.154 22.684 8.127 22.684 C 8.354 22.684 8.738 22.684 8.738 22.254 C 8.738 21.801 8.331 21.777 7.697 21.756 C 6.225 21.666 6.225 20.873 6.225 19.674 L 6.225 14.736 L 6.225 14.353 C 6.225 13.378 6.225 12.972 6.791 12.835 C 7.153 12.745 8.761 12.745 9.779 12.745 C 10.64 12.745 12.859 12.745 13.334 14.624 C 13.402 14.806 13.629 15.688 13.718 15.938 C 13.786 16.116 13.922 16.502 14.262 16.481 C 14.669 16.458 14.669 16.073 14.669 15.823 L 14.533 14.194 C 14.465 13.401 14.465 12.813 14.465 12.497 C 14.465 11.975 14.579 9.62 14.579 9.145 C 14.579 8.805 14.465 8.579 14.172 8.555 C 13.854 8.533 13.696 8.826 13.629 9.12 C 13.198 10.909 12.699 11.679 9.893 11.679 C 9.373 11.679 7.312 11.679 6.791 11.613 C 6.339 11.545 6.249 11.5 6.249 9.644 L 6.249 4.798 C 6.249 3.168 6.838 3.101 8.014 3.101 C 13.403 3.101 13.856 3.848 14.874 6.157 C 15.01 6.451 15.145 6.859 15.531 6.859 C 15.916 6.859 15.916 6.316 15.916 6.202 L 15.916 2.489 C 15.893 2.037 15.849 1.855 15.304 1.855 Z"></path><path fill="rgb(0,86,63)" d="M 47.114 21.982 C 46.435 21.892 46.117 21.279 45.619 20.441 L 43.287 16.324 C 42.744 15.326 42.451 15.168 42.133 14.986 C 42.948 14.828 45.416 14.24 45.416 11.431 C 45.416 10.594 45.053 7.674 40.82 7.674 C 40.095 7.674 36.926 7.764 36.269 7.764 C 35.975 7.764 34.798 7.674 34.57 7.674 C 33.778 7.674 33.687 7.674 33.687 8.013 C 33.687 8.353 34.027 8.375 34.548 8.399 C 35.724 8.466 35.724 9.123 35.724 10.098 L 35.724 20.264 C 35.724 21.258 35.724 21.893 34.548 21.985 C 34.049 22.006 33.687 22.03 33.687 22.37 C 33.687 22.731 34.005 22.71 34.186 22.71 C 34.616 22.71 36.563 22.62 36.97 22.62 C 37.061 22.62 39.393 22.71 39.845 22.71 C 40.026 22.71 40.344 22.731 40.344 22.392 C 40.344 22.031 40.004 22.007 39.483 21.986 C 38.284 21.916 38.284 21.259 38.284 20.265 L 38.284 15.962 C 38.284 15.556 38.329 15.419 38.737 15.419 C 39.824 15.419 39.938 15.509 40.458 16.552 L 43.355 22.007 C 43.626 22.505 43.717 22.732 44.147 22.732 C 44.374 22.732 47 22.732 47.294 22.732 C 47.452 22.732 47.701 22.687 47.701 22.437 C 47.748 22.164 47.611 22.072 47.114 21.982 Z  M 39.506 14.783 C 38.307 14.783 38.307 14.736 38.307 13.9 L 38.307 9.87 C 38.307 8.941 38.329 8.353 39.439 8.353 C 42.404 8.353 42.744 10.911 42.744 11.772 C 42.744 14.783 40.367 14.783 39.506 14.783 Z"></path><path fill="rgb(0,86,63)" d="M 62.147 21.982 C 61.469 21.892 61.151 21.279 60.652 20.441 L 58.32 16.324 C 57.777 15.326 57.484 15.168 57.167 14.986 C 57.981 14.828 60.449 14.24 60.449 11.431 C 60.449 10.594 60.087 7.674 55.854 7.674 C 55.128 7.674 51.96 7.764 51.302 7.764 C 51.008 7.764 49.831 7.674 49.604 7.674 C 48.811 7.674 48.72 7.674 48.72 8.013 C 48.72 8.353 49.06 8.375 49.581 8.399 C 50.758 8.466 50.758 9.123 50.758 10.098 L 50.758 20.264 C 50.758 21.258 50.758 21.893 49.581 21.985 C 49.082 22.006 48.72 22.03 48.72 22.37 C 48.72 22.731 49.038 22.71 49.22 22.71 C 49.65 22.71 51.596 22.62 52.003 22.62 C 52.094 22.62 54.427 22.71 54.879 22.71 C 55.062 22.71 55.377 22.731 55.377 22.392 C 55.377 22.031 55.037 22.007 54.517 21.986 C 53.317 21.916 53.317 21.259 53.317 20.265 L 53.317 15.962 C 53.317 15.556 53.363 15.419 53.769 15.419 C 54.857 15.419 54.97 15.509 55.49 16.552 L 58.388 22.007 C 58.659 22.505 58.749 22.732 59.18 22.732 C 59.406 22.732 62.033 22.732 62.326 22.732 C 62.485 22.732 62.734 22.687 62.734 22.437 C 62.759 22.164 62.646 22.072 62.147 21.982 Z  M 54.54 14.783 C 53.339 14.783 53.339 14.736 53.339 13.9 L 53.339 9.87 C 53.339 8.941 53.362 8.353 54.471 8.353 C 57.436 8.353 57.778 10.911 57.778 11.772 C 57.755 14.783 55.401 14.783 54.54 14.783 Z"></path><path fill="rgb(0,86,63)" d="M 129.253 21.982 C 128.574 21.892 128.257 21.279 127.759 20.441 L 125.449 16.345 C 124.905 15.349 124.611 15.191 124.296 15.009 C 125.109 14.849 127.579 14.261 127.579 11.454 C 127.579 10.617 127.216 7.696 122.981 7.696 C 122.256 7.696 119.087 7.787 118.431 7.787 C 118.136 7.787 116.958 7.696 116.733 7.696 C 115.94 7.696 115.85 7.696 115.85 8.036 C 115.85 8.375 116.189 8.398 116.709 8.421 C 117.886 8.488 117.886 9.146 117.886 10.119 L 117.886 20.285 C 117.886 21.279 117.886 21.914 116.709 22.004 C 116.211 22.029 115.85 22.051 115.85 22.391 C 115.85 22.752 116.165 22.731 116.348 22.731 C 116.778 22.731 118.725 22.639 119.131 22.639 C 119.223 22.639 121.555 22.731 122.007 22.731 C 122.189 22.731 122.505 22.752 122.505 22.415 C 122.505 22.052 122.167 22.03 121.645 22.005 C 120.447 21.939 120.447 21.28 120.447 20.286 L 120.447 15.985 C 120.447 15.575 120.49 15.44 120.898 15.44 C 121.986 15.44 122.099 15.532 122.62 16.573 L 125.517 22.03 C 125.788 22.528 125.879 22.753 126.309 22.753 C 126.538 22.753 129.163 22.753 129.456 22.753 C 129.614 22.753 129.863 22.708 129.863 22.458 C 129.888 22.164 129.773 22.072 129.253 21.982 Z  M 121.646 14.783 C 120.448 14.783 120.448 14.736 120.448 13.9 L 120.448 9.87 C 120.448 8.941 120.47 8.353 121.578 8.353 C 124.546 8.353 124.885 10.911 124.885 11.772 C 124.884 14.783 122.506 14.783 121.646 14.783 Z"></path></g></g></svg>